<svg id="check-square" xmlns="http://www.w3.org/2000/svg" width="54" height="54" viewBox="0 0 54 54">
  <path id="Path_49" data-name="Path 49" d="M44.77,46.349a1.3,1.3,0,0,0-1.3,1.3V80.105H2.6V39.233h31.78a1.3,1.3,0,1,0,0-2.6H1.3a1.3,1.3,0,0,0-1.3,1.3V81.4a1.3,1.3,0,0,0,1.3,1.3H44.77a1.3,1.3,0,0,0,1.3-1.3V47.648A1.3,1.3,0,0,0,44.77,46.349Z" transform="translate(0 -28.704)" fill="#172735"/>
  <path id="Path_50" data-name="Path 50" d="M77.736.381a1.3,1.3,0,0,0-1.837,0L41.527,34.753,33,26.224a1.3,1.3,0,0,0-1.837,1.837l9.447,9.447a1.3,1.3,0,0,0,1.837,0L77.736,2.218A1.3,1.3,0,0,0,77.736.381Z" transform="translate(-24.117 0)" fill="#172735"/>
</svg>
