<svg xmlns="http://www.w3.org/2000/svg" width="42" height="64.81" viewBox="0 0 42 64.81">
  <g id="pencil" transform="translate(-66)">
    <g id="Group_84" data-name="Group 84" transform="translate(66 0)">
      <g id="Group_83" data-name="Group 83">
        <path id="Path_44" data-name="Path 44" d="M143.791,361.453h-4.216a1.175,1.175,0,0,0,0,2.35h4.216a1.175,1.175,0,0,0,0-2.35Z" transform="translate(-125.889 -298.993)"/>
        <path id="Path_45" data-name="Path 45" d="M107.68,7.025a9.433,9.433,0,0,0-4.285-5.668c-.069-.069-.138-.138-.207-.138A9.413,9.413,0,0,0,90.469,4.606c-.069.069-.138.138-.138.207L68.212,43.175a.254.254,0,0,0-.069.207L66.76,56.377,66,63.5v.138a1.165,1.165,0,0,0,1.175,1.175L76.23,64.4a1.175,1.175,0,0,0,0-2.35l-5.046.069,2.765-2,.069-.069,10.506-7.672.069-.069V52.23l22.119-38.086a.068.068,0,0,0,.069-.069A9.4,9.4,0,0,0,107.68,7.025ZM88.879,12l5.046,2.9-17.9,30.966-5.046-2.9ZM68.7,61.077l.346-3.456h.207a3.054,3.054,0,0,1,1.106.415,4.759,4.759,0,0,1,.9.76l.207.207Zm4.631-3.525c-.069-.138-.207-.207-.276-.346a5.441,5.441,0,0,0-1.521-1.244,6.821,6.821,0,0,0-1.866-.691.877.877,0,0,0-.415-.069l1.037-9.815,11.059,6.359Zm9.815-7.534-5.046-2.9L96,16.08l5.046,2.9Zm19.077-33.109-12.1-6.981L91.989,6.61l12.1,7.05Zm2.972-5.391L93.234,4.606a7.127,7.127,0,0,1,3.525-2.212,7.012,7.012,0,0,1,5.253.622c.069,0,.138.069.207.069A6.919,6.919,0,0,1,105.4,7.3,7.325,7.325,0,0,1,105.191,11.518Z" transform="translate(-66 0)" fill="#172735"/>
        <path id="Path_46" data-name="Path 46" d="M188.133,361.453h-2.557a1.175,1.175,0,0,0,0,2.35h2.557a1.175,1.175,0,1,0,0-2.35Z" transform="translate(-163.94 -298.993)" fill="#172735"/>
      </g>
    </g>
  </g>
</svg>
