<svg xmlns="http://www.w3.org/2000/svg" xmlns:xlink="http://www.w3.org/1999/xlink" width="162" height="162" viewBox="0 0 162 162">
  <g id="Group_12" data-name="Group 12" transform="translate(-639 -1619)">
    <g transform="matrix(1, 0, 0, 1, 639, 1619)" filter="url(#Ellipse_1)">
      <circle id="Ellipse_1-2" data-name="Ellipse 1" cx="72" cy="72" r="72" transform="translate(9 6)" fill="#dd4b39"/>
    </g>
    <g id="google-plus-logo" transform="translate(691.655 1669)">
      <g id="Group_7" data-name="Group 7" transform="translate(1.345)">
        <path id="Path_2" data-name="Path 2" d="M36.493,0H23.246c-5.9,0-9.989,1.294-13.666,4.332a13.077,13.077,0,0,0-4.618,9.7c0,5.515,4.2,11.376,12,11.376.749,0,1.579-.077,2.311-.145l-.108.262a6.019,6.019,0,0,0-.61,2.563,7.285,7.285,0,0,0,2.041,4.76l.126.162-.224.015c-3.218.22-9.206.631-13.581,3.32-5.167,3.072-5.568,7.54-5.568,8.836,0,5.156,4.8,10.36,15.54,10.36,12.482,0,19.014-6.886,19.014-13.689,0-5.031-2.949-7.515-6.081-10.152l-2.642-2.055a3.907,3.907,0,0,1-1.833-3.077,4.913,4.913,0,0,1,1.914-3.437l.094-.095c2.853-2.247,6.086-4.794,6.086-10.3,0-5.54-3.462-8.4-5.127-9.779h4.4a.28.28,0,0,0,.153-.044L36.645.529A.287.287,0,0,0,36.493,0ZM20.429,52.507c-7.609,0-12.721-3.554-12.721-8.843,0-3.454,2.091-5.963,6.209-7.456a29.2,29.2,0,0,1,7.6-1.165,11.68,11.68,0,0,1,1.66.072c5.324,3.789,7.883,5.778,7.883,9.567C31.057,49.51,26.984,52.507,20.429,52.507Zm-.072-29.128c-6.386,0-9.036-8.394-9.036-12.888a8.228,8.228,0,0,1,1.589-5.364,6.7,6.7,0,0,1,5.062-2.39c5.863,0,9.105,7.881,9.105,13.327a7.424,7.424,0,0,1-1.806,5.289A7.408,7.408,0,0,1,20.357,23.379Z" transform="translate(-1.345)" fill="#fff"/>
        <path id="Path_3" data-name="Path 3" d="M81.761,39.84h-6.98V32.885a.287.287,0,0,0-.287-.287h-3a.287.287,0,0,0-.287.287V39.84H64.26a.287.287,0,0,0-.287.287v3.043a.287.287,0,0,0,.287.287H71.2v7a.287.287,0,0,0,.287.287h3a.288.288,0,0,0,.287-.287v-7h6.98a.287.287,0,0,0,.287-.287V40.127A.286.286,0,0,0,81.761,39.84Z" transform="translate(-28.048 -13.899)" fill="#fff"/>
      </g>
    </g>
  </g>
</svg>
