<svg xmlns="http://www.w3.org/2000/svg" xmlns:xlink="http://www.w3.org/1999/xlink" width="162" height="162" viewBox="0 0 162 162">
  <g id="Group_11" data-name="Group 11" transform="translate(-495 -1619)">
    <g transform="matrix(1, 0, 0, 1, 495, 1619)" filter="url(#Ellipse_1)">
      <circle id="Ellipse_1-2" data-name="Ellipse 1" cx="72" cy="72" r="72" transform="translate(9 6)" fill="#1da1f2"/>
    </g>
    <g id="twitter" transform="translate(-104 1705)">
      <g id="Group_6" data-name="Group 6" transform="translate(648 -34)">
        <path id="Path_1" data-name="Path 1" d="M64,54.156a27.355,27.355,0,0,1-7.56,2.072,13.047,13.047,0,0,0,5.772-7.252,26.221,26.221,0,0,1-8.32,3.176,13.12,13.12,0,0,0-22.7,8.972,13.51,13.51,0,0,0,.3,2.992A37.138,37.138,0,0,1,4.456,50.392,13.124,13.124,0,0,0,8.488,67.928,12.957,12.957,0,0,1,2.56,66.312v.144A13.181,13.181,0,0,0,13.072,79.348a13.1,13.1,0,0,1-3.44.432,11.6,11.6,0,0,1-2.484-.224,13.245,13.245,0,0,0,12.26,9.14,26.363,26.363,0,0,1-16.268,5.6A24.58,24.58,0,0,1,0,94.112,36.938,36.938,0,0,0,20.128,100c24.144,0,37.344-20,37.344-37.336,0-.58-.02-1.14-.048-1.7A26.175,26.175,0,0,0,64,54.156Z" transform="translate(0 -48)" fill="#fff"/>
      </g>
    </g>
  </g>
</svg>
